HIERARCHY
ROOT Hips
{
	OFFSET 0.000000 0.000000 0.000000
	CHANNELS 6 Xposition Yposition Zposition Xrotation Yrotation Zrotation
	JOINT LeftUpLeg_virtual
	{
		OFFSET 0.000000 0.000000 0.000000
		CHANNELS 3 Xrotation Yrotation Zrotation
		JOINT LeftUpLeg
		{
			OFFSET 13.026900 -6.336304 -1.092800
			CHANNELS 3 Xrotation Yrotation Zrotation
			JOINT LeftLeg
			{
				OFFSET 0.524474 -46.096886 9.782700
				CHANNELS 3 Xrotation Yrotation Zrotation
				JOINT LeftFoot
				{
					OFFSET -0.524474 -53.427422 -12.948200
					CHANNELS 3 Xrotation Yrotation Zrotation
					JOINT LeftToeBase
					{
						OFFSET 0.192200 -14.009700 16.364100
						CHANNELS 3 Xrotation Yrotation Zrotation
						JOINT LeftToe_End
						{
							OFFSET -1.784700 -0.561700 9.474800
							CHANNELS 3 Xrotation Yrotation Zrotation
							End Site
							{
								OFFSET 0 0 0
							}
						}
					}
				}
			}
		}
	}
	JOINT RightUpLeg_virtual
	{
		OFFSET 0.000000 0.000000 0.000000
		CHANNELS 3 Xrotation Yrotation Zrotation
		JOINT RightUpLeg
		{
			OFFSET -12.883000 -6.336304 -1.092800
			CHANNELS 3 Xrotation Yrotation Zrotation
			JOINT RightLeg
			{
				OFFSET -0.524587 -46.096825 9.782800
				CHANNELS 3 Xrotation Yrotation Zrotation
				JOINT RightFoot
				{
					OFFSET 0.524587 -53.427383 -12.948300
					CHANNELS 3 Xrotation Yrotation Zrotation
					JOINT RightToeBase
					{
						OFFSET -0.192200 -14.009700 16.364100
						CHANNELS 3 Xrotation Yrotation Zrotation
						JOINT RightToe_End
						{
							OFFSET 1.784700 -0.561700 9.474800
							CHANNELS 3 Xrotation Yrotation Zrotation
							End Site
							{
								OFFSET 0 0 0
							}
						}
					}
				}
			}
		}
	}
	JOINT Spine_virtual
	{
		OFFSET 0.000000 0.000000 0.000000
		CHANNELS 3 Xrotation Yrotation Zrotation
		JOINT Spine
		{
			OFFSET 0.072000 7.257294 -0.789700
			CHANNELS 3 Xrotation Yrotation Zrotation
			JOINT Spine1
			{
				OFFSET 0.000000 12.508769 -0.658067
				CHANNELS 3 Xrotation Yrotation Zrotation
				JOINT Spine1_split
				{
					OFFSET 0.000000 12.508769 -0.658067
					CHANNELS 3 Xrotation Yrotation Zrotation
					JOINT Spine2
					{
						OFFSET 0.000000 12.508769 -0.658067
						CHANNELS 3 Xrotation Yrotation Zrotation
						JOINT Neck_virtual
						{
							OFFSET 0.000000 0.000000 0.000000
							CHANNELS 3 Xrotation Yrotation Zrotation
							JOINT Neck
							{
								OFFSET 0.000000 14.033295 7.520400
								CHANNELS 3 Xrotation Yrotation Zrotation
								JOINT Head
								{
									OFFSET 0.000000 8.198502 5.703100
									CHANNELS 3 Xrotation Yrotation Zrotation
									JOINT HeadTop_End
									{
										OFFSET 0.000000 17.760803 13.332701
										CHANNELS 3 Xrotation Yrotation Zrotation
										End Site
										{
											OFFSET 0 0 0
										}
									}
								}
							}
						}
						JOINT LeftShoulder_virtual
						{
							OFFSET 0.000000 0.000000 0.000000
							CHANNELS 3 Xrotation Yrotation Zrotation
							JOINT LeftShoulder
							{
								OFFSET 6.292450 5.785301 -0.669000
								CHANNELS 3 Xrotation Yrotation Zrotation
								JOINT LeftShoulder_split
								{
									OFFSET 6.292450 5.785301 -0.669000
									CHANNELS 3 Xrotation Yrotation Zrotation
									JOINT LeftArm
									{
										OFFSET 13.907140 -6.093903 1.965100
										CHANNELS 3 Xrotation Yrotation Zrotation
										JOINT LeftForeArm
										{
											OFFSET 34.140198 0.000000 0.000000
											CHANNELS 3 Xrotation Yrotation Zrotation
											JOINT LeftHand
											{
												OFFSET 40.960209 0.000000 0.000000
												CHANNELS 3 Xrotation Yrotation Zrotation
												End Site
												{
													OFFSET 0 0 0
												}
											}
										}
									}
								}
							}
						}
						JOINT RightShoulder_virtual
						{
							OFFSET 0.000000 0.000000 0.000000
							CHANNELS 3 Xrotation Yrotation Zrotation
							JOINT RightShoulder
							{
								OFFSET -6.292450 5.785301 -0.669000
								CHANNELS 3 Xrotation Yrotation Zrotation
								JOINT RightShoulder_split
								{
									OFFSET -6.292450 5.785301 -0.669000
									CHANNELS 3 Xrotation Yrotation Zrotation
									JOINT RightArm
									{
										OFFSET -13.907140 -6.093903 1.965100
										CHANNELS 3 Xrotation Yrotation Zrotation
										JOINT RightForeArm
										{
											OFFSET -34.140198 0.000000 0.000000
											CHANNELS 3 Xrotation Yrotation Zrotation
											JOINT RightHand
											{
												OFFSET -40.960209 0.000000 0.000000
												CHANNELS 3 Xrotation Yrotation Zrotation
												End Site
												{
													OFFSET 0 0 0
												}
											}
										}
									}
								}
							}
						}
					}
				}
			}
		}
	}
}
MOTION
Frames: 9
Frame Time: 0.03333333
8.082995 115.126404 6.833897 0.000000 0.000000 0.000000 -3.992861 9.318765 7.071386 -17.597217 -2.879962 -1.274148 21.461703 7.046871 -1.272188 -0.839198 10.520439 -2.495639 -2.225037 0.016306 -1.076712 0.000000 0.000000 0.000000 -4.547525 11.550711 6.874442 9.742864 -10.888954 -13.480265 17.359534 -11.994503 -0.309566 -6.937059 -29.253611 25.067890 -3.704816 -0.133921 -0.485537 0.000000 0.000000 0.000000 -1.464855 8.578893 6.404477 4.374528 2.729856 12.637290 7.438552 6.058244 1.296034 0.722660 -0.548566 0.292138 0.000000 0.000000 0.000000 0.984099 5.683355 2.899412 -13.593065 -10.590497 -4.352217 5.279206 -11.887089 -4.484684 0.000000 0.000000 0.000000 0.737158 5.675122 1.957856 -0.146951 1.875171 18.997112 -0.272282 -0.190440 -2.634619 -37.727790 2.626455 -9.880966 -22.508554 -29.608108 8.519690 0.000000 0.000000 0.000000 -0.973331 5.220198 2.523260 6.222428 1.797850 -1.026763 0.454643 2.960156 1.667472 38.091439 -49.064305 67.993597 -13.352936 31.008799 39.625599 0.000000 0.000000 0.000000 
7.347565 114.365082 7.508461 0.000000 0.000000 0.000000 -3.132595 19.994709 5.780568 -21.670034 -7.556671 -1.840118 21.850899 5.156867 -1.462719 0.734542 8.681653 -3.462984 -2.628123 0.357195 -1.143950 0.000000 0.000000 0.000000 -3.871280 21.782356 5.657402 12.254913 -17.225011 -11.064550 16.180979 -12.511173 -0.026040 -8.280582 -28.840590 26.044164 -4.840915 -0.260726 -0.141567 0.000000 0.000000 0.000000 0.151138 18.194687 5.245507 1.793090 4.178676 11.679136 6.593909 7.363777 0.030121 0.729718 -0.537259 0.152264 0.000000 0.000000 0.000000 0.523922 6.924315 1.708192 -17.007989 -15.999442 -1.301167 7.911604 -17.564139 -2.828378 0.000000 0.000000 0.000000 0.170047 7.012723 0.438036 -1.401144 8.118092 17.457130 -0.325677 -0.731198 -2.897281 -50.500916 6.279442 -13.437523 -27.353207 -29.899648 6.861374 0.000000 0.000000 0.000000 -1.038016 6.664834 1.134015 5.906097 1.852075 -1.226870 -0.347617 3.279304 2.443415 34.532791 -52.980203 70.846588 -13.624154 35.876457 38.742616 0.000000 0.000000 0.000000 
6.492746 113.596481 8.269348 0.000000 0.000000 0.000000 -1.548724 28.996605 4.335703 -26.521874 -11.666124 -2.917073 23.039702 3.798860 -1.758412 2.793795 7.272814 -3.540026 -2.541950 0.585058 -1.359868 0.000000 0.000000 0.000000 -2.238552 30.798163 4.324158 13.641191 -23.318583 -8.727826 15.524880 -12.753754 0.372579 -10.262521 -28.240672 25.805998 -5.381127 -0.331444 0.097115 0.000000 0.000000 0.000000 1.794428 26.459670 3.986807 -0.495836 5.642657 10.560371 5.962718 8.497915 -1.372916 0.554727 -0.636747 0.102081 0.000000 0.000000 0.000000 0.365792 8.036080 0.251549 -20.389206 -20.958560 2.004689 10.368048 -21.929789 -0.845527 0.000000 0.000000 0.000000 -0.096381 8.145940 -1.150471 -2.087598 12.235082 13.658172 0.465760 -1.489933 -2.179743 -59.372259 7.581656 -18.763182 -31.772162 -28.745493 4.045570 0.000000 0.000000 0.000000 -0.804306 7.906502 -0.337023 5.622371 2.863397 -0.037328 -1.176206 3.843864 2.917417 26.951252 -51.260481 68.742910 -10.277335 39.283741 34.229773 0.000000 0.000000 0.000000 
5.608260 112.937614 8.729549 0.000000 0.000000 0.000000 0.568260 36.255942 2.753964 -31.222547 -15.059930 -4.526959 24.077522 3.026871 -1.957136 4.693399 6.511164 -2.767725 -1.956814 0.699440 -1.596679 0.000000 0.000000 0.000000 0.060626 38.229047 2.780410 14.217044 -28.748888 -6.849492 15.333872 -12.736280 0.783783 -12.663311 -27.596239 24.464614 -5.256516 -0.345434 0.205454 0.000000 0.000000 0.000000 3.264543 33.594818 2.667618 -2.442156 6.979216 9.226352 5.663360 9.466552 -2.589617 0.448703 -0.936094 0.010394 0.000000 0.000000 0.000000 0.538254 8.966264 -1.074298 -23.894244 -25.198627 4.720974 12.352242 -25.058255 1.133204 0.000000 0.000000 0.000000 -0.105839 9.115622 -2.391115 -2.270735 14.455966 8.086106 1.187763 -2.369975 -0.921931 -64.525412 8.084911 -24.693460 -35.589773 -26.918834 0.093304 0.000000 0.000000 0.000000 -0.238843 8.945323 -1.569086 5.303390 4.687493 2.136829 -2.105415 3.797889 3.138879 17.618002 -44.203932 62.816259 -4.045486 39.604811 26.888322 0.000000 0.000000 0.000000 
4.789073 112.422585 9.042137 0.000000 0.000000 0.000000 2.891394 41.864255 1.125213 -35.263003 -17.891132 -6.541717 24.606043 2.256951 -1.947926 6.185758 6.048968 -2.057145 -1.390295 0.707948 -1.739415 0.000000 0.000000 0.000000 2.562237 44.084445 1.099946 14.250125 -33.082615 -5.508795 15.505149 -12.344262 1.068812 -14.769372 -26.891770 22.747373 -5.175340 -0.330752 0.173211 0.000000 0.000000 0.000000 4.769976 39.579409 1.188404 -4.015907 8.096065 7.737969 5.662969 10.238904 -3.415759 0.273256 -0.975078 -0.049925 0.000000 0.000000 0.000000 1.118194 9.718735 -2.005635 -27.522375 -28.401257 6.201749 13.846492 -27.123755 2.840013 0.000000 0.000000 0.000000 0.111426 9.940555 -3.097877 -2.104515 15.169879 1.525840 1.235620 -2.485403 0.288781 -65.978275 9.252821 -29.722692 -38.840434 -26.470277 -5.215622 0.000000 0.000000 0.000000 0.557673 9.720287 -2.385999 4.919774 6.984202 4.490050 -3.192396 2.870034 2.803459 8.970740 -33.932913 55.263819 2.274369 36.765122 19.478675 0.000000 0.000000 0.000000 
4.109018 112.000153 9.086864 0.000000 0.000000 0.000000 5.152586 46.294326 -0.524471 -38.601777 -20.306895 -8.732684 24.574211 1.334621 -1.701123 7.203730 5.533339 -1.730870 -1.566121 0.621958 -1.574541 0.000000 0.000000 0.000000 5.057212 48.621917 -0.756139 14.006719 -36.153100 -4.560230 15.962304 -11.538515 1.157786 -16.011927 -26.123822 21.320536 -5.491428 -0.313822 0.047362 0.000000 0.000000 0.000000 6.284994 44.889516 -0.458832 -5.102658 8.960220 6.221295 5.858236 10.815891 -3.860237 0.384563 -1.067628 -0.191824 0.000000 0.000000 0.000000 2.031484 10.267692 -2.472299 -30.901801 -30.352445 6.324570 14.911287 -28.065905 3.971679 0.000000 0.000000 0.000000 0.388695 10.607162 -3.298477 -1.817754 15.270664 -5.122496 0.365011 -1.797232 1.220689 -65.326573 12.675295 -33.023637 -41.457110 -28.314256 -11.678532 0.000000 0.000000 0.000000 1.429394 10.255857 -2.817250 4.559462 9.160554 6.222165 -4.525020 1.097984 2.447024 1.531670 -23.377644 47.336790 6.605154 32.209212 13.873948 0.000000 0.000000 0.000000 
3.576897 111.601334 9.050945 0.000000 0.000000 0.000000 7.401418 49.883522 -2.328886 -41.621677 -22.395342 -10.916250 24.493188 0.350968 -1.327373 8.010896 4.866260 -1.889495 -1.891228 0.482718 -1.319247 0.000000 0.000000 0.000000 7.488050 52.247682 -2.789816 13.766308 -38.198502 -3.699829 16.397893 -10.470193 1.005187 -16.357495 -25.362167 20.348547 -5.839916 -0.293731 -0.100712 0.000000 0.000000 0.000000 7.923706 49.464787 -2.283532 -5.838452 9.552331 4.922311 6.032315 11.189200 -3.983373 0.697270 -0.775980 -0.318281 0.000000 0.000000 0.000000 3.071286 10.606106 -2.609138 -33.554773 -31.076234 5.531674 15.702810 -28.098307 4.470884 0.000000 0.000000 0.000000 0.685535 11.119556 -3.214096 -1.486141 15.532280 -11.121310 -1.375046 -0.774891 1.699856 -64.184599 18.249881 -35.036719 -43.735969 -32.694784 -19.053130 0.000000 0.000000 0.000000 2.225297 10.566546 -3.032393 4.313557 10.895450 6.895920 -6.002015 -0.680158 2.139073 -5.320124 -15.333949 39.705611 8.517102 28.303629 10.327865 0.000000 0.000000 0.000000 
3.139885 111.208191 8.935154 0.000000 0.000000 0.000000 9.645641 52.684391 -4.292784 -44.471147 -24.094822 -12.861746 24.655380 -0.604190 -1.013005 8.790138 4.104624 -2.367373 -2.026343 0.340385 -1.048360 0.000000 0.000000 0.000000 10.005188 55.204126 -5.081501 13.577363 -39.431532 -2.771769 16.489501 -9.389044 0.643564 -16.374118 -24.706649 19.524509 -5.588729 -0.262338 -0.175152 0.000000 0.000000 0.000000 9.762365 53.156162 -4.319390 -6.376602 9.913030 3.950174 6.075845 11.343188 -3.942232 1.132071 -0.391611 -0.331203 0.000000 0.000000 0.000000 4.102678 10.745521 -2.634201 -35.079186 -30.916141 4.504646 16.260295 -27.303022 4.410963 0.000000 0.000000 0.000000 0.953099 11.417478 -3.063158 -1.055893 16.362999 -15.960291 -2.475525 0.095219 2.113791 -63.513321 24.389393 -36.235035 -45.976735 -39.305567 -27.143057 0.000000 0.000000 0.000000 2.809262 10.667941 -3.201848 4.256399 12.080771 6.361924 -7.179374 -2.013975 1.721393 -12.539897 -10.987082 33.145692 8.720588 26.643687 8.226072 0.000000 0.000000 0.000000 
2.744183 110.823166 8.878819 0.000000 0.000000 0.000000 11.881410 55.009647 -6.379286 -47.075433 -25.243122 -14.317881 24.930780 -1.162590 -0.913899 9.398663 3.485122 -2.634796 -2.023358 0.252926 -0.788217 0.000000 0.000000 0.000000 12.607285 57.456146 -7.567375 13.387180 -40.182054 -1.739824 16.413266 -8.593589 0.208979 -16.323462 -24.254451 18.528958 -4.430759 -0.209115 -0.125689 0.000000 0.000000 0.000000 11.750416 56.065277 -6.503582 -6.867669 10.070223 3.308465 5.930056 11.295641 -3.887781 1.356927 -0.207199 -0.171607 0.000000 0.000000 0.000000 4.911264 10.670673 -2.677374 -35.465737 -30.354064 3.837532 16.480020 -26.055835 3.947935 0.000000 0.000000 0.000000 1.120024 11.494004 -2.991424 -0.514887 17.842216 -19.298035 -2.872828 -0.019236 2.765319 -64.269157 29.414688 -36.560377 -47.116410 -45.969232 -34.093777 0.000000 0.000000 0.000000 3.192883 10.573916 -3.439651 4.307651 12.747086 4.971089 -7.885604 -2.675267 1.501444 -20.072966 -9.917318 28.170564 8.143885 28.099928 6.869213 0.000000 0.000000 0.000000 
